<?xml version="1.0" encoding="iso-8859-1"?>
<!-- Generator: Adobe Illustrator 19.0.0, SVG Export Plug-In . SVG Version: 6.00 Build 0)  -->
<svg version="1.1" id="Capa_1" xmlns="http://www.w3.org/2000/svg" xmlns:xlink="http://www.w3.org/1999/xlink" x="0px" y="0px"
	 viewBox="0 0 86.25 86.25" style="enable-background:new 0 0 86.25 86.25;" xml:space="preserve">
<g>
	<path style="fill:#231F20;" d="M59.458,0H18.125v12h-8v74.25h58v-12h8V12.5L59.458,0z M74.125,72.25h-6V24.5L51.458,12H20.125V2
		h37.776v12.125h16.224V72.25z M66.125,74.25v10h-54V14h6h1h1h29.776v12.125h16.224V72.25v1V74.25z M51.896,14.827l12.396,9.298
		H51.896V14.827z M72.292,12.125H59.896V2.827L72.292,12.125z"/>
	<polygon style="fill:#231F20;" points="20.125,32.969 39,32.969 39,30.969 20.125,30.969 19.125,30.969 19,30.969 19,32.969 
		19.125,32.969 	"/>
	<polygon style="fill:#231F20;" points="19.125,38.969 19,38.969 19,40.969 19.125,40.969 20.125,40.969 59,40.969 59,38.969 
		20.125,38.969 	"/>
	<polygon style="fill:#231F20;" points="19.125,46.969 19,46.969 19,48.969 19.125,48.969 20.125,48.969 59,48.969 59,46.969 
		20.125,46.969 	"/>
	<polygon style="fill:#231F20;" points="19.125,54.969 19,54.969 19,56.969 19.125,56.969 20.125,56.969 59,56.969 59,54.969 
		20.125,54.969 	"/>
	<polygon style="fill:#231F20;" points="19.125,62.969 19,62.969 19,64.969 19.125,64.969 20.125,64.969 59,64.969 59,62.969 
		20.125,62.969 	"/>
</g>
<g>
</g>
<g>
</g>
<g>
</g>
<g>
</g>
<g>
</g>
<g>
</g>
<g>
</g>
<g>
</g>
<g>
</g>
<g>
</g>
<g>
</g>
<g>
</g>
<g>
</g>
<g>
</g>
<g>
</g>
</svg>
